<svg width="70" height="70" viewBox="0 0 70 70" fill="none" xmlns="http://www.w3.org/2000/svg">
<path fill-rule="evenodd" clip-rule="evenodd" d="M19.2105 0H50.4025C60.9959 0 69.6142 8.61824 69.6138 19.2109V50.4029C69.6138 60.9955 60.9959 69.6138 50.4025 69.6138H19.2105C8.61782 69.6138 0 60.9959 0 50.4029V19.2109C0 8.61824 8.61782 0 19.2105 0ZM50.4029 63.4373C57.5902 63.4373 63.4377 57.5902 63.4377 50.4029H63.4373V19.2109C63.4373 12.0239 57.5898 6.17647 50.4025 6.17647H19.2105C12.0235 6.17647 6.17647 12.0239 6.17647 19.2109V50.4029C6.17647 57.5902 12.0235 63.4377 19.2105 63.4373H50.4029Z" fill="#49BCF7"/>
<path fill-rule="evenodd" clip-rule="evenodd" d="M16.8692 34.8078C16.8692 24.9168 24.9159 16.8701 34.8069 16.8701C44.6979 16.8701 52.7446 24.9168 52.7446 34.8078C52.7446 44.6984 44.6979 52.7447 34.8069 52.7447C24.9159 52.7447 16.8692 44.6984 16.8692 34.8078ZM23.0457 34.8074C23.0457 41.2923 28.322 46.5678 34.8069 46.5678C41.2918 46.5678 46.5681 41.2923 46.5681 34.8074C46.5681 28.3221 41.2922 23.0462 34.8069 23.0462C28.3216 23.0462 23.0457 28.3221 23.0457 34.8074Z" fill="#49BCF7"/>
<path d="M53.4969 11.6328C52.3069 11.6328 51.1379 12.1146 50.2975 12.9587C49.4529 13.7987 48.9675 14.9681 48.9675 16.1622C48.9675 17.3526 49.4534 18.5216 50.2975 19.3658C51.1375 20.2058 52.3069 20.6916 53.4969 20.6916C54.691 20.6916 55.8563 20.2058 56.7004 19.3658C57.5445 18.5216 58.0263 17.3522 58.0263 16.1622C58.0263 14.9681 57.5445 13.7987 56.7004 12.9587C55.8604 12.1146 54.691 11.6328 53.4969 11.6328Z" fill="#49BCF7"/>
</svg>
