<svg width="123" height="20" viewBox="0 0 123 20" fill="none" xmlns="http://www.w3.org/2000/svg">
<path d="M5.86719 12.1562L4.03906 14.125V19H0.523438V1.9375H4.03906V9.67188L5.58594 7.55078L9.93359 1.9375H14.2578L8.19922 9.51953L14.4336 19H10.25L5.86719 12.1562ZM18.6523 6.32031L18.7578 7.78516C19.6641 6.65234 20.8789 6.08594 22.4023 6.08594C23.7461 6.08594 24.7461 6.48047 25.4023 7.26953C26.0586 8.05859 26.3945 9.23828 26.4102 10.8086V19H23.0234V10.8906C23.0234 10.1719 22.8672 9.65234 22.5547 9.33203C22.2422 9.00391 21.7227 8.83984 20.9961 8.83984C20.043 8.83984 19.3281 9.24609 18.8516 10.0586V19H15.4648V6.32031H18.6523ZM32.5625 19H29.1641V6.32031H32.5625V19ZM28.9648 3.03906C28.9648 2.53125 29.1328 2.11328 29.4688 1.78516C29.8125 1.45703 30.2773 1.29297 30.8633 1.29297C31.4414 1.29297 31.9023 1.45703 32.2461 1.78516C32.5898 2.11328 32.7617 2.53125 32.7617 3.03906C32.7617 3.55469 32.5859 3.97656 32.2344 4.30469C31.8906 4.63281 31.4336 4.79688 30.8633 4.79688C30.293 4.79688 29.832 4.63281 29.4805 4.30469C29.1367 3.97656 28.9648 3.55469 28.9648 3.03906ZM36.2891 19V8.80469H34.4023V6.32031H36.2891V5.24219C36.2891 3.82031 36.6953 2.71875 37.5078 1.9375C38.3281 1.14844 39.4727 0.753906 40.9414 0.753906C41.4102 0.753906 41.9844 0.832031 42.6641 0.988281L42.6289 3.61328C42.3477 3.54297 42.0039 3.50781 41.5977 3.50781C40.3242 3.50781 39.6875 4.10547 39.6875 5.30078V6.32031H42.207V8.80469H39.6875V19H36.2891ZM49.5195 19.2344C47.6602 19.2344 46.1445 18.6641 44.9727 17.5234C43.8086 16.3828 43.2266 14.8633 43.2266 12.9648V12.6367C43.2266 11.3633 43.4727 10.2266 43.9648 9.22656C44.457 8.21875 45.1523 7.44531 46.0508 6.90625C46.957 6.35938 47.9883 6.08594 49.1445 6.08594C50.8789 6.08594 52.2422 6.63281 53.2344 7.72656C54.2344 8.82031 54.7344 10.3711 54.7344 12.3789V13.7617H46.6602C46.7695 14.5898 47.0977 15.2539 47.6445 15.7539C48.1992 16.2539 48.8984 16.5039 49.7422 16.5039C51.0469 16.5039 52.0664 16.0312 52.8008 15.0859L54.4648 16.9492C53.957 17.668 53.2695 18.2305 52.4023 18.6367C51.5352 19.0352 50.5742 19.2344 49.5195 19.2344ZM49.1328 8.82812C48.4609 8.82812 47.9141 9.05469 47.4922 9.50781C47.0781 9.96094 46.8125 10.6094 46.6953 11.4531H51.4062V11.1836C51.3906 10.4336 51.1875 9.85547 50.7969 9.44922C50.4062 9.03516 49.8516 8.82812 49.1328 8.82812ZM49.4375 1H53.1289L49.8828 4.63281H47.1289L49.4375 1Z" fill="#24282A"/>
<path d="M75.0781 3.16797H69.2305V19H67.7891V3.16797H61.9531V1.9375H75.0781V3.16797ZM82.4844 7.51562C82.1875 7.46094 81.8711 7.43359 81.5352 7.43359C80.6602 7.43359 79.918 7.67969 79.3086 8.17188C78.707 8.65625 78.2773 9.36328 78.0195 10.293V19H76.625V6.32031H77.9961L78.0195 8.33594C78.7617 6.83594 79.9531 6.08594 81.5938 6.08594C81.9844 6.08594 82.293 6.13672 82.5195 6.23828L82.4844 7.51562ZM92.2461 19C92.1055 18.6016 92.0156 18.0117 91.9766 17.2305C91.4844 17.8711 90.8555 18.3672 90.0898 18.7188C89.332 19.0625 88.5273 19.2344 87.6758 19.2344C86.457 19.2344 85.4688 18.8945 84.7109 18.2148C83.9609 17.5352 83.5859 16.6758 83.5859 15.6367C83.5859 14.4023 84.0977 13.4258 85.1211 12.707C86.1523 11.9883 87.5859 11.6289 89.4219 11.6289H91.9648V10.1875C91.9648 9.28125 91.6836 8.57031 91.1211 8.05469C90.5664 7.53125 89.7539 7.26953 88.6836 7.26953C87.707 7.26953 86.8984 7.51953 86.2578 8.01953C85.6172 8.51953 85.2969 9.12109 85.2969 9.82422L83.8906 9.8125C83.8906 8.80469 84.3594 7.93359 85.2969 7.19922C86.2344 6.45703 87.3867 6.08594 88.7539 6.08594C90.168 6.08594 91.2812 6.44141 92.0938 7.15234C92.9141 7.85547 93.3359 8.83984 93.3594 10.1055V16.1055C93.3594 17.332 93.4883 18.25 93.7461 18.8594V19H92.2461ZM87.8398 17.9922C88.7773 17.9922 89.6133 17.7656 90.3477 17.3125C91.0898 16.8594 91.6289 16.2539 91.9648 15.4961V12.707H89.457C88.0586 12.7227 86.9648 12.9805 86.1758 13.4805C85.3867 13.9727 84.9922 14.6523 84.9922 15.5195C84.9922 16.2305 85.2539 16.8203 85.7773 17.2891C86.3086 17.7578 86.9961 17.9922 87.8398 17.9922ZM100.871 17.0664L104.727 6.32031H106.168L101.434 19H100.297L95.5391 6.32031H96.9805L100.871 17.0664ZM113.223 19.2344C112.145 19.2344 111.168 18.9688 110.293 18.4375C109.426 17.9062 108.75 17.168 108.266 16.2227C107.781 15.2695 107.539 14.2031 107.539 13.0234V12.5195C107.539 11.3008 107.773 10.2031 108.242 9.22656C108.719 8.25 109.379 7.48438 110.223 6.92969C111.066 6.36719 111.98 6.08594 112.965 6.08594C114.504 6.08594 115.723 6.61328 116.621 7.66797C117.527 8.71484 117.98 10.1484 117.98 11.9688V12.7539H108.934V13.0234C108.934 14.4609 109.344 15.6602 110.164 16.6211C110.992 17.5742 112.031 18.0508 113.281 18.0508C114.031 18.0508 114.691 17.9141 115.262 17.6406C115.84 17.3672 116.363 16.9297 116.832 16.3281L117.711 16.9961C116.68 18.4883 115.184 19.2344 113.223 19.2344ZM112.965 7.28125C111.91 7.28125 111.02 7.66797 110.293 8.44141C109.574 9.21484 109.137 10.2539 108.98 11.5586H116.586V11.4062C116.547 10.1875 116.199 9.19531 115.543 8.42969C114.887 7.66406 114.027 7.28125 112.965 7.28125ZM122.281 19H120.875V1H122.281V19Z" fill="#939FA4"/>
</svg>
